<svg xmlns="http://www.w3.org/2000/svg" xmlns:xlink="http://www.w3.org/1999/xlink" version="1.1" id="Ebene_1" x="0px" y="0px" viewBox="0 0 223.6 56.7" style="enable-background:new 0 0 223.6 56.7;" xml:space="preserve"> <style type="text/css"> .st0{fill:url(#SVGID_1_);} .st1{fill:#D8B75A;} .st2{fill:url(#SVGID_00000098907611694737700460000002285915934760059520_);} .st3{fill:#363636;} </style> <linearGradient id="SVGID_1_" gradientUnits="userSpaceOnUse" x1="8.6341" y1="25.3" x2="38.5341" y2="25.3" gradientTransform="matrix(1 0 0 -1 0 58)"> <stop offset="0" style="stop-color:#878787"></stop> <stop offset="1" style="stop-color:#000000"></stop> </linearGradient> <polygon class="st0" points="8.6,42.8 11.7,13.9 15.5,11.6 34.6,22.8 38.5,48 35.9,48.7 31.6,50.5 27.2,53.8 "></polygon> <path class="st1" d="M20.6,5.5c0.2-0.4,0.4-0.8,0.7-1.1c1.2-1.4,2.1-1.7,3.8-1c1.9,0.8,3.8,2,5.5,3.2c1.8,1.3,2.3,3.3,2.3,5.4 c0,2.5,0,5.1,0,7.6c0,0.9,0.2,1.5,1,1.8c0.1,0,0.2,0.1,0.4,0.2c1.5,0.5,1.8,1.7,1.8,3.1c0.1,1.7,0.5,3.5,0.7,5.2 c0.2,1.8,0.4,3.7,0.7,5.5c0.2,1.9,0.5,3.7,0.8,5.6c0.2,1.7,0.4,3.5,0.6,5.2c0.1,0.8,0.2,1.6,0.3,2.4c0,0.2-0.2,0.5-0.3,0.6 c-1.4,0.3-3,0.4-4.3,0.9c-1,0.4-1.9,1.1-2.8,1.8c-1,0.8-2.1,1.6-3,2.4c-0.6,0.5-1.1,0.4-1.7,0.1c-2.7-1.5-5.4-3.1-8-4.6 c-3.6-2.1-7.2-4.2-10.8-6.3c-0.7-0.4-0.9-0.9-0.7-1.7C7.8,40.5,8,39.3,8.1,38c0.3-2.1,0.5-4.2,0.8-6.3c0.2-1.8,0.4-3.5,0.6-5.3 c0.3-2,0.5-4,0.8-6.1c0.2-1.9,0.4-3.9,0.6-5.8c0.1-0.8,0.3-1.5,1.1-1.8c0.4-0.2,0.7-0.5,1.1-0.6c1.7-0.6,2.3-1.6,2.3-3.5 C15.3,5.8,17.1,4.2,20.6,5.5z M22.5,14.8c1,0.6,2.1,1.2,3.2,1.8c0.2-3.2,0.5-6.2-2.9-7.7c-0.1,0-0.3,0-0.4,0c0,1.9,0,3.8,0,5.7 C22.3,14.7,22.4,14.7,22.5,14.8z M31.1,19.5c0-2.6,0.1-5.1,0-7.7c-0.1-2-0.9-3.6-2.8-4.6c-0.8-0.4-1.4-0.9-2.2-1.3 c-0.8-0.4-1.6-0.9-2.5-1c-0.4-0.1-1,0.6-1.3,1.1C22,6.6,22.6,6.7,23,7c1.1,0.8,2.2,1.4,3.1,2.4c1.4,1.6,1.7,3.7,1.5,5.8 c-0.2,1.8,0.1,3.2,2.1,3.9c0.4,0.1,0.8,0.3,1.2,0.5C30.9,19.5,31,19.5,31.1,19.5z M12.4,15.1c-0.2,1.5-0.3,3-0.5,4.4 c-0.3,2.1-0.5,4.1-0.8,6.2c-0.2,1.7-0.4,3.5-0.6,5.2c-0.3,2-0.5,4-0.8,6c-0.2,1.3-0.3,2.6-0.6,3.9c-0.1,0.8,0,1.3,0.8,1.7 c3.3,1.9,6.6,3.8,9.8,5.7c2.4,1.4,4.8,2.7,7.4,4.2c0.3-2.2,0.6-4.4,0.8-6.5c0.2-1.9,0.4-3.8,0.6-5.6c0.3-2.1,0.5-4.2,0.8-6.3 c0.2-1.3,0.4-2.6,0.6-3.9s0.3-2.6,0.4-3.9c0-0.3,0-0.7-0.2-0.8c-0.8-0.6-1.8-1.1-2.8-1.7c0,1.4,0,2.6,0,3.8c0,0.6-0.1,1.1-0.8,1.1 c-0.8,0-0.8-0.6-0.8-1.1c0-1.3,0-2.6,0-4c0-0.3-0.2-0.8-0.5-0.9c-2.3-1.4-4.7-2.8-7.1-4.2c-0.4-0.2-0.8-0.4-1.4-0.6 c0,1.4,0,2.6,0,3.7c0,0.6-0.2,0.8-0.8,0.8c-0.6,0-0.8-0.2-0.8-0.8c0-1.4,0-2.8,0-4.2c0-0.3-0.1-0.7-0.2-0.8 C14.1,16,13.3,15.6,12.4,15.1z M34.3,24.4c-0.8,0.6-1.9,1-2.1,1.6c-0.4,1.8-0.5,3.6-0.7,5.4c-0.1,1.3-0.3,2.6-0.4,3.9 c-0.2,2-0.5,4-0.8,6c-0.2,1.4-0.3,2.8-0.5,4.1c-0.2,1.8-0.5,3.6-0.7,5.4c0,0.2,0.1,0.4,0.1,0.7c1.3-1,2.3-2.2,3.6-2.8 s2.9-0.7,4.5-1.1C36.4,40.1,35.4,32.4,34.3,24.4z M20.5,13.6c0-1.9,0-3.6,0-5.2c0-1-0.6-1.5-2-1.7c-0.8-0.1-1.3,0.4-1.4,1.1 c-0.2,1.1-0.2,2.3-0.3,3.5c0,0.1,0.1,0.2,0.1,0.3C18,12.2,19.2,12.9,20.5,13.6z M16.9,13.7c-0.1,2.2-0.4,1.7,1.4,2.8 c0.6,0.3,1.1,0.7,1.7,1c1.9,1.1,3.8,2.2,5.7,3.3c0.1-1.1,0.2-2-1-2.6c-1.7-0.8-3.2-1.9-4.8-2.9C18.8,14.7,17.9,14.2,16.9,13.7z M27.5,21.8c0.7,0.4,1.5,0.7,2.1,1.2c1.2,0.9,2.3,1.3,3.5,0c-1.8-1-3.6-2.1-5.5-3.2C27.5,20.5,27.5,21.1,27.5,21.8z M13.5,13.6 c0.7,0.4,1.1,0.6,1.6,0.9c0-0.6,0-1,0-1.6C14.6,13.1,14.1,13.3,13.5,13.6z"></path> <linearGradient id="SVGID_00000013884837543904163700000015704351169376905631_" gradientUnits="userSpaceOnUse" x1="15.822" y1="29.516" x2="19.5448" y2="18.9681" gradientTransform="matrix(1 0 0 -1 0 58)"> <stop offset="8.938832e-03" style="stop-color:#878787"></stop> <stop offset="1" style="stop-color:#B8A46C"></stop> </linearGradient> <path style="fill:url(#SVGID_00000013884837543904163700000015704351169376905631_);" d="M11.1,40.6c1.5-4.2,2.7-7.9,3.9-11.2 c0.2-0.7,0.6-1.3,0.9-1.9c0.1-0.4,0.5-0.5,1.1-0.4c2.4,0.4,4.7,1.2,7,2.5c1.5,0.9,1.9,1.9,2.2,2.8c0.4,1.4,0.4,2.8-1,3.7 c-0.6,0.4-1.4,0.6-2.1,1c-0.2,0.1-0.4,0.4-0.4,0.6c0.6,2.5,1.3,5.2,2,8.2c0.2,0.8,0.7,2.1-0.9,1.6c-2.2-0.6-3.5-1.9-3.6-3.2 c-0.3-2.7-0.6-5.1-0.9-7.3c-0.4-0.2-0.5-0.3-0.6-0.3c-1.9-0.8-1.8-0.8-2.2,0.4c-0.4,1.4-1.1,2.8-1.5,4.4c-0.3,1.3-1.3,0.8-2.5,0.1 C12.1,41.4,11.6,41,11.1,40.6z M17.7,33.5c1.9,0.7,3.2,0.8,3.6,0.2c0.4-0.7,0.7-1.5,0.8-2.3c0-0.3-0.5-0.9-1-1.1 c-0.6-0.4-1.4-0.6-2.2-0.9C18.5,30.8,18.1,32.1,17.7,33.5z"></path> <g> <g> <path class="st3" d="M66.7,13.5c1.7,1.8,2.5,4.2,2.5,7.5c0,3-0.8,5.4-2.5,7.3c-1.1,1.3-2.3,2.2-3.4,2.6l6.9,18.8h-4.6L59,31.5 h-5.4v18.2h-4.4V10.2h9.6C62,10.2,64.6,11.3,66.7,13.5z M63.2,25.8c1-1.1,1.5-2.7,1.5-4.9c0-2-0.6-3.6-1.7-4.9c-1.3-1.3-3-2-5.2-2 h-4.2v13.5h5.5C60.8,27.6,62.1,27,63.2,25.8z"></path> <path class="st3" d="M78.7,26.8h13v3.8h-13v15.2h15.1v3.8H74.3V10.2h18.6v3.8H78.7V26.8z"></path> <path class="st3" d="M101.3,10.2l6.5,29.9h0.4l6.5-29.9h4.4l-9,39.4h-4.2l-9-39.4H101.3z"></path> <path class="st3" d="M140.3,13.1c1.9,2,2.9,4.9,2.9,8.5s-1,6.5-2.9,8.5c-1.8,1.9-4.2,2.8-7.3,2.8h-5.5v16.8h-4.4V10.2h9.9 C136.1,10.2,138.5,11.2,140.3,13.1z M127.5,14.1v15h4.4c2.3,0,4.1-0.7,5.4-2c1.1-1.2,1.7-3,1.7-5.5s-0.6-4.2-1.7-5.5 c-1.3-1.3-3.1-2-5.4-2H127.5z"></path> <path class="st3" d="M147.4,10.2h4.4v35.6h15.5v3.8h-19.9V10.2z"></path> <path class="st3" d="M171.7,10.2h4.4v28.9c0,2.2,0.4,3.7,1.3,4.6c0.9,0.9,2.2,1.4,4,1.4h0.2c1.7,0,2.9-0.5,3.8-1.4 c1-1.1,1.5-2.6,1.5-4.6V10.2h4.4v28.9c0,3.5-1,6.3-2.9,8.3c-1.4,1.5-3.7,2.2-6.9,2.2h-0.2c-3.2,0-5.5-0.7-6.9-2.2 c-1.9-2-2.9-4.8-2.9-8.3V10.2z"></path> <path class="st3" d="M211.9,31.1c2.9,1.8,4.4,4.3,4.4,7.7c0,3.4-1,6.1-2.9,8.1c-1.8,1.9-4.3,2.8-7.5,2.8c-3.1,0-5.4-0.9-7.1-2.6 c-2-2.2-3.1-4.7-3.1-7.7v-2h4.4v1.8c0,2.2,0.5,3.8,1.5,4.9c1,1.1,2.3,1.6,3.8,1.6c2,0,3.6-0.5,4.6-1.6c1.1-1.2,1.7-2.8,1.7-4.6 c0-2-0.9-3.6-2.7-4.9c-3.2-2.2-6.2-4.4-9-6.9c-2-1.8-3.1-4.1-3.3-7.1c-0.1-3,0.8-5.5,2.9-7.5c1.9-1.9,4-2.8,6.3-2.8 c2.8,0,5,0.8,6.5,2.4c1.9,2,2.8,4.9,2.7,8.5h-4.4c0.3-2.3-0.3-4.1-1.5-5.5c-0.9-0.9-2-1.4-3.3-1.4c-1.3,0-2.4,0.5-3.3,1.4 c-1.1,1.2-1.7,2.6-1.7,4.2c0,1.8,0.9,3.4,2.7,5.1C206.5,27.4,209.2,29.4,211.9,31.1z"></path> </g> </g> </svg>